<mxfile host="65bd71144e">
    <diagram id="gRAG9gzBstayLzz9ymqB" name="Page-1">
        <mxGraphModel dx="702" dy="659" grid="1" gridSize="10" guides="1" tooltips="1" connect="1" arrows="1" fold="1" page="1" pageScale="1" pageWidth="850" pageHeight="1100" math="0" shadow="0">
            <root>
                <mxCell id="0"/>
                <mxCell id="1" parent="0"/>
                <mxCell id="4" value="" style="endArrow=none;html=1;strokeColor=#000000;" parent="1" edge="1">
                    <mxGeometry width="50" height="50" relative="1" as="geometry">
                        <mxPoint x="280" y="400" as="sourcePoint"/>
                        <mxPoint x="280" y="160" as="targetPoint"/>
                    </mxGeometry>
                </mxCell>
                <mxCell id="5" value="" style="endArrow=none;html=1;strokeColor=#000000;" parent="1" edge="1">
                    <mxGeometry width="50" height="50" relative="1" as="geometry">
                        <mxPoint x="120" y="280" as="sourcePoint"/>
                        <mxPoint x="440" y="280" as="targetPoint"/>
                    </mxGeometry>
                </mxCell>
                <mxCell id="6" value="" style="curved=1;endArrow=none;html=1;endFill=0;strokeColor=#000000;" parent="1" edge="1">
                    <mxGeometry width="50" height="50" relative="1" as="geometry">
                        <mxPoint x="120" y="160" as="sourcePoint"/>
                        <mxPoint x="440" y="330" as="targetPoint"/>
                        <Array as="points">
                            <mxPoint x="170" y="440"/>
                            <mxPoint x="300" y="70"/>
                        </Array>
                    </mxGeometry>
                </mxCell>
                <mxCell id="7" value="Cocave down" style="text;html=1;align=center;verticalAlign=middle;whiteSpace=wrap;rounded=0;strokeColor=#000000;" parent="1" vertex="1">
                    <mxGeometry x="280" y="190" width="60" height="30" as="geometry"/>
                </mxCell>
                <mxCell id="9" value="Cocave up" style="text;html=1;align=center;verticalAlign=middle;whiteSpace=wrap;rounded=0;strokeColor=#000000;" parent="1" vertex="1">
                    <mxGeometry x="170" y="290" width="60" height="30" as="geometry"/>
                </mxCell>
                <mxCell id="10" value="Inflection point" style="text;html=1;align=center;verticalAlign=middle;whiteSpace=wrap;rounded=0;strokeColor=#000000;" parent="1" vertex="1">
                    <mxGeometry x="160" y="210" width="60" height="30" as="geometry"/>
                </mxCell>
            </root>
        </mxGraphModel>
    </diagram>
</mxfile>